<?xml version="1.0" encoding="UTF-8" standalone="no"?><!DOCTYPE svg PUBLIC "-//W3C//DTD SVG 1.1//EN" "http://www.w3.org/Graphics/SVG/1.1/DTD/svg11.dtd"><svg width="100%" height="100%" viewBox="0 0 732 175" version="1.1" xmlns="http://www.w3.org/2000/svg" xmlns:xlink="http://www.w3.org/1999/xlink" xml:space="preserve" xmlns:serif="http://www.serif.com/" style="fill-rule:evenodd;clip-rule:evenodd;stroke-linejoin:round;stroke-miterlimit:1.41421;"><g transform="matrix(0.75,0,0,0.75,-65.3009,-22.9157)"><text x="89.324px" y="128.265px" style="font-family:'BowlbyOneSC-Regular', 'Bowlby One SC';font-stretch:ultra-condensed;font-size:132px;">Dog Frien  ly</text><text x="89.324px" y="260.265px" style="font-family:'BowlbyOneSC-Regular', 'Bowlby One SC';font-stretch:ultra-condensed;font-size:132px;">V<tspan x="180.332px " y="260.265px ">a</tspan>ncouver</text></g><g><path d="M594.033,34.225c1.161,-1.642 3.121,-2.33 4.374,-1.535c1.253,0.794 1.327,2.772 0.166,4.414c-1.161,1.642 -3.121,2.33 -4.374,1.535c-1.253,-0.794 -1.327,-2.772 -0.166,-4.414Z" style="fill:none;"/><path d="M562.224,35.724l0,-2.218c0,-0.696 -0.595,-1.26 -1.33,-1.26c-0.734,0 -1.331,0.564 -1.331,1.26l0,2.218c0,0.695 0.596,1.26 1.331,1.26c0.734,0 1.33,-0.564 1.33,-1.26Z" style="fill-rule:nonzero;"/><path d="M600.575,14.521c-6.119,-5.151 -15.719,-7.727 -28.8,-7.727l-18.763,0l0,11.793c4.022,-4.516 8.949,-4.688 8.949,-4.688c-0.948,2.359 -1.422,4.875 -1.633,7.184c6.746,-4.874 12.838,-2.418 12.838,-2.418c-4.178,3.822 -6.567,9.31 -7.46,11.682c1.073,1.617 1.819,3.588 2.058,5.998c0.003,0.03 0.003,0.061 0.005,0.092l12.125,0c6.804,0 12.321,-1.22 12.321,5.223c0,4.898 -3.191,12.811 -7.709,16.326c-3.024,-0.068 -11.617,-0.703 -15.657,-5.586c-0.469,-0.568 -1.336,-0.667 -1.936,-0.222c-0.599,0.445 -0.704,1.265 -0.234,1.833c2.703,3.267 6.9,4.923 10.666,5.759l-15.18,0c-2.347,2.966 -5.559,7.133 -8.205,10.939l17.815,0c13.021,0 22.606,-2.583 28.754,-7.748c6.149,-5.166 9.223,-13.256 9.223,-24.273c0.001,-10.96 -3.059,-19.015 -9.177,-24.167Zm-2,22.584c-1.162,1.643 -3.12,2.33 -4.374,1.535c-1.254,-0.795 -1.329,-2.771 -0.166,-4.414c1.162,-1.642 3.119,-2.33 4.373,-1.534c1.254,0.794 1.328,2.771 0.167,4.413Z" style="fill-rule:nonzero;"/></g></svg>